<svg width="149" height="47" viewBox="0 0 149 47" fill="none" xmlns="http://www.w3.org/2000/svg">
<g filter="url(#filter0_d_422_778)">
<path fill-rule="evenodd" clip-rule="evenodd" d="M81.0595 0.628906H37.0404L29.4077 4.49939V7.22306L29.5122 7.22435V28.9023L29.2003 29.064L14.8741 21.5025V4.35603H4V25.1419H4.03258L4.00005 25.1709L28.0255 37.8518L28.1421 37.748L28.1526 37.7569L40.9091 32.6984L40.9091 23.135L41.0041 7.36629L41.0136 7.36641L41.0136 5.78955L41.0136 5.35949H51.2604V27.5072L61.5071 22.4183V5.35949H72.3811V17.6877L83.778 14.8207V5.35949V4.06933V2.77917L81.0595 0.628906Z" fill="#849CFF"/>
</g>
<path d="M69.3519 46.4453L63.8079 23.3453H66.6789L71.2659 43.8053L75.8199 23.3453H78.6909L73.2459 46.4453H69.3519ZM81.6524 26.4803V23.8403H84.2924V26.4803H81.6524ZM81.6524 46.4453V29.2853H84.2924V46.4453H81.6524ZM87.2688 44.4653H90.0738C91.0198 44.4653 91.7018 44.2123 92.1198 43.7063C92.5598 43.1783 92.7798 42.4963 92.7798 41.6603C92.7798 41.0003 92.5818 40.4393 92.1858 39.9773C91.7898 39.5153 91.1958 38.9763 90.4038 38.3603C89.7218 37.8103 89.1718 37.3373 88.7538 36.9413C88.3578 36.5233 88.0058 36.0173 87.6978 35.4233C87.4118 34.8073 87.2688 34.1033 87.2688 33.3113C87.2688 32.1453 87.6538 31.1883 88.4238 30.4403C89.2158 29.6703 90.2718 29.2853 91.5918 29.2853H94.4628V31.2653H92.0868C90.5248 31.2653 89.7438 32.0023 89.7438 33.4763C89.7438 34.0483 89.9198 34.5433 90.2718 34.9613C90.6238 35.3793 91.1738 35.8743 91.9218 36.4463C92.6038 36.9743 93.1648 37.4583 93.6048 37.8983C94.0448 38.3163 94.4188 38.8553 94.7268 39.5153C95.0348 40.1533 95.1888 40.9123 95.1888 41.7923C95.1888 43.3543 94.7708 44.5203 93.9348 45.2903C93.1208 46.0603 91.9658 46.4453 90.4698 46.4453H87.2688V44.4653ZM100.165 46.6763C99.3734 46.6763 98.7794 46.4013 98.3834 45.8513C98.0094 45.3013 97.8224 44.5863 97.8224 43.7063V29.2853H100.462V42.8483C100.462 43.4643 100.506 43.9043 100.594 44.1683C100.682 44.4323 100.891 44.5643 101.221 44.5643C101.375 44.5643 102.618 44.2343 104.95 43.5743V29.2853H107.59V46.4453H105.709L105.214 45.3233C104.862 45.4553 104.598 45.5433 104.422 45.5873C103.388 45.9613 102.552 46.2363 101.914 46.4123C101.276 46.5883 100.693 46.6763 100.165 46.6763ZM111.559 29.2853H113.605L113.902 30.2423L115.255 29.8463C116.179 29.5603 116.905 29.3623 117.433 29.2523C117.983 29.1203 118.5 29.0543 118.984 29.0543C119.93 29.0543 120.59 29.4723 120.964 30.3083C121.58 30.0883 122.449 29.8243 123.571 29.5163C124.693 29.2083 125.518 29.0543 126.046 29.0543C126.838 29.0543 127.421 29.3293 127.795 29.8793C128.191 30.4293 128.389 31.1443 128.389 32.0243V46.4453H125.749V32.8823C125.749 32.2443 125.705 31.8043 125.617 31.5623C125.529 31.2983 125.309 31.1663 124.957 31.1663C124.781 31.1663 123.571 31.5183 121.327 32.2223V46.4453H118.687V32.8823C118.687 32.2443 118.643 31.8043 118.555 31.5623C118.467 31.2983 118.247 31.1663 117.895 31.1663C117.719 31.1663 116.487 31.5183 114.199 32.2223V46.4453H111.559V29.2853ZM135.454 46.4453C134.244 46.4453 133.276 46.0823 132.55 45.3563C131.846 44.6303 131.494 43.6513 131.494 42.4193V33.6413C131.494 32.2113 131.89 31.0893 132.682 30.2753C133.474 29.4613 134.651 29.0543 136.213 29.0543C137.775 29.0543 138.941 29.4613 139.711 30.2753C140.503 31.0893 140.899 32.2113 140.899 33.6413V35.1593C140.899 36.0833 140.635 36.7873 140.107 37.2713C139.579 37.7333 138.886 38.0853 138.028 38.3273L134.134 39.4163V42.6503C134.134 43.1783 134.288 43.6183 134.596 43.9703C134.926 44.3003 135.344 44.4653 135.85 44.4653H139.414V46.4453H135.454ZM136.147 36.7763C136.873 36.5783 137.357 36.4353 137.599 36.3473C137.863 36.2373 138.039 36.0833 138.127 35.8853C138.215 35.6873 138.259 35.3573 138.259 34.8953V33.0803C138.259 32.3763 138.072 31.8593 137.698 31.5293C137.346 31.1993 136.851 31.0343 136.213 31.0343C135.597 31.0343 135.091 31.2103 134.695 31.5623C134.321 31.9143 134.134 32.4203 134.134 33.0803V37.3373L136.147 36.7763ZM143.527 26.4803V23.8403H146.167V26.4803H143.527ZM143.527 46.4453V29.2853H146.167V46.4453H143.527Z" fill="#849CFF"/>
<defs>
<filter id="filter0_d_422_778" x="0" y="0.628906" width="87.778" height="45.2228" filterUnits="userSpaceOnUse" color-interpolation-filters="sRGB">
<feFlood flood-opacity="0" result="BackgroundImageFix"/>
<feColorMatrix in="SourceAlpha" type="matrix" values="0 0 0 0 0 0 0 0 0 0 0 0 0 0 0 0 0 0 127 0" result="hardAlpha"/>
<feOffset dy="4"/>
<feGaussianBlur stdDeviation="2"/>
<feComposite in2="hardAlpha" operator="out"/>
<feColorMatrix type="matrix" values="0 0 0 0 0 0 0 0 0 0 0 0 0 0 0 0 0 0 0.25 0"/>
<feBlend mode="normal" in2="BackgroundImageFix" result="effect1_dropShadow_422_778"/>
<feBlend mode="normal" in="SourceGraphic" in2="effect1_dropShadow_422_778" result="shape"/>
</filter>
</defs>
</svg>
